<svg xmlns="http://www.w3.org/2000/svg" width="1440" height="900"><path d="M808,394L839,272L725,344Z" fill="#d9a5a0" stroke="#d9a5a0" stroke-width="1.51"/><path d="M839,272L677,286L725,344Z" fill="#db9892" stroke="#db9892" stroke-width="1.51"/><path d="M994,346L938,262L839,272Z" fill="#e7a19a" stroke="#e7a19a" stroke-width="1.51"/><path d="M712,138L627,217L677,286Z" fill="#e27770" stroke="#e27770" stroke-width="1.51"/><path d="M808,394L994,346L839,272Z" fill="#dfaba5" stroke="#dfaba5" stroke-width="1.51"/><path d="M724,534L893,471L808,394Z" fill="#c6c6c6" stroke="#c6c6c6" stroke-width="1.51"/><path d="M712,138L677,286L839,272Z" fill="#e3847d" stroke="#e3847d" stroke-width="1.51"/><path d="M893,471L994,346L808,394Z" fill="#d4bdbb" stroke="#d4bdbb" stroke-width="1.51"/><path d="M871,108L712,138L839,272Z" fill="#dc837b" stroke="#dc837b" stroke-width="1.51"/><path d="M893,471L934,480L994,346Z" fill="#d1c8c7" stroke="#d1c8c7" stroke-width="1.51"/><path d="M725,344L724,534L808,394Z" fill="#c7bab9" stroke="#c7bab9" stroke-width="1.51"/><path d="M893,471L873,669L934,480Z" fill="#d3d3d3" stroke="#d3d3d3" stroke-width="1.51"/><path d="M573,379L724,534L725,344Z" fill="#ccb0ac" stroke="#ccb0ac" stroke-width="1.51"/><path d="M573,379L725,344L677,286Z" fill="#da9690" stroke="#da9690" stroke-width="1.51"/><path d="M627,217L573,379L677,286Z" fill="#e1847c" stroke="#e1847c" stroke-width="1.51"/><path d="M938,262L871,108L839,272Z" fill="#ea8a82" stroke="#ea8a82" stroke-width="1.51"/><path d="M934,89L871,108L938,262Z" fill="#df8980" stroke="#df8980" stroke-width="1.51"/><path d="M705,23L601,116L712,138Z" fill="#c87268" stroke="#c87268" stroke-width="1.51"/><path d="M1128,106L934,89L938,262Z" fill="#e48e85" stroke="#e48e85" stroke-width="1.51"/><path d="M994,346L1126,274L938,262Z" fill="#eea7a0" stroke="#eea7a0" stroke-width="1.51"/><path d="M934,480L1073,348L994,346Z" fill="#ddc1bd" stroke="#ddc1bd" stroke-width="1.51"/><path d="M426,258L475,428L573,379Z" fill="#e27c76" stroke="#e27c76" stroke-width="1.51"/><path d="M712,138L601,116L627,217Z" fill="#d77067" stroke="#d77067" stroke-width="1.51"/><path d="M838,17L712,138L871,108Z" fill="#ca8075" stroke="#ca8075" stroke-width="1.51"/><path d="M724,534L873,669L893,471Z" fill="#d0d0d0" stroke="#d0d0d0" stroke-width="1.51"/><path d="M546,545L727,610L724,534Z" fill="#d2c1bf" stroke="#d2c1bf" stroke-width="1.51"/><path d="M934,89L838,17L871,108Z" fill="#cb8378" stroke="#cb8378" stroke-width="1.51"/><path d="M838,17L705,23L712,138Z" fill="#c07b70" stroke="#c07b70" stroke-width="1.51"/><path d="M573,379L546,545L724,534Z" fill="#d0b1ae" stroke="#d0b1ae" stroke-width="1.51"/><path d="M475,428L546,545L573,379Z" fill="#d59f9a" stroke="#d59f9a" stroke-width="1.51"/><path d="M426,258L573,379L627,217Z" fill="#e6706a" stroke="#e6706a" stroke-width="1.51"/><path d="M1073,348L1126,274L994,346Z" fill="#edb1ac" stroke="#edb1ac" stroke-width="1.51"/><path d="M727,610L873,669L724,534Z" fill="#d2d2d2" stroke="#d2d2d2" stroke-width="1.51"/><path d="M934,480L1133,529L1073,348Z" fill="#d3d3d3" stroke="#d3d3d3" stroke-width="1.51"/><path d="M1073,348L1226,374L1126,274Z" fill="#eeb6b0" stroke="#eeb6b0" stroke-width="1.51"/><path d="M702,799L873,669L727,610Z" fill="#d9d9d9" stroke="#d9d9d9" stroke-width="1.51"/><path d="M601,116L491,120L627,217Z" fill="#d9615a" stroke="#d9615a" stroke-width="1.51"/><path d="M557,-28L491,120L601,116Z" fill="#c95950" stroke="#c95950" stroke-width="1.51"/><path d="M491,120L426,258L627,217Z" fill="#e45553" stroke="#e45553" stroke-width="1.51"/><path d="M546,545L549,617L727,610Z" fill="#dcbab6" stroke="#dcbab6" stroke-width="1.51"/><path d="M458,667L549,617L546,545Z" fill="#e7aca6" stroke="#e7aca6" stroke-width="1.51"/><path d="M873,669L936,686L934,480Z" fill="#dbdbdb" stroke="#dbdbdb" stroke-width="1.51"/><path d="M848,805L936,686L873,669Z" fill="#e1e1e1" stroke="#e1e1e1" stroke-width="1.51"/><path d="M1072,617L1133,529L934,480Z" fill="#dcdcdc" stroke="#dcdcdc" stroke-width="1.51"/><path d="M1240,240L1128,106L1126,274Z" fill="#f7978f" stroke="#f7978f" stroke-width="1.51"/><path d="M1126,274L1128,106L938,262Z" fill="#f6958d" stroke="#f6958d" stroke-width="1.51"/><path d="M935,-115L863,-93L838,17Z" fill="#bc7f73" stroke="#bc7f73" stroke-width="1.51"/><path d="M936,686L1072,617L934,480Z" fill="#dddddd" stroke="#dddddd" stroke-width="1.51"/><path d="M289,423L417,501L475,428Z" fill="#e08780" stroke="#e08780" stroke-width="1.51"/><path d="M475,428L417,501L546,545Z" fill="#de9a94" stroke="#de9a94" stroke-width="1.51"/><path d="M838,17L721,-94L705,23Z" fill="#b4786c" stroke="#b4786c" stroke-width="1.51"/><path d="M705,23L557,-28L601,116Z" fill="#bf665a" stroke="#bf665a" stroke-width="1.51"/><path d="M1024,-31L838,17L934,89Z" fill="#c48377" stroke="#c48377" stroke-width="1.51"/><path d="M1128,106L1024,-31L934,89Z" fill="#d18a7f" stroke="#d18a7f" stroke-width="1.51"/><path d="M491,120L369,238L426,258Z" fill="#e83d44" stroke="#e83d44" stroke-width="1.51"/><path d="M601,-90L557,-28L705,23Z" fill="#b76558" stroke="#b76558" stroke-width="1.51"/><path d="M863,-93L721,-94L838,17Z" fill="#b77b6f" stroke="#b77b6f" stroke-width="1.51"/><path d="M426,258L289,423L475,428Z" fill="#e66e69" stroke="#e66e69" stroke-width="1.51"/><path d="M327,101L369,238L491,120Z" fill="#dd323b" stroke="#dd323b" stroke-width="1.51"/><path d="M1133,529L1226,374L1073,348Z" fill="#dececb" stroke="#dececb" stroke-width="1.51"/><path d="M1133,529L1200,513L1226,374Z" fill="#d9d9d9" stroke="#d9d9d9" stroke-width="1.51"/><path d="M1280,648L1200,513L1133,529Z" fill="#e2e2e2" stroke="#e2e2e2" stroke-width="1.51"/><path d="M1128,106L1148,34L1024,-31Z" fill="#d18d81" stroke="#d18d81" stroke-width="1.51"/><path d="M1226,374L1240,240L1126,274Z" fill="#f4ada6" stroke="#f4ada6" stroke-width="1.51"/><path d="M721,-94L601,-90L705,23Z" fill="#b56e62" stroke="#b56e62" stroke-width="1.51"/><path d="M1258,119L1148,34L1128,106Z" fill="#dd9186" stroke="#dd9186" stroke-width="1.51"/><path d="M1024,-31L935,-115L838,17Z" fill="#bf8276" stroke="#bf8276" stroke-width="1.51"/><path d="M863,-93L935,-115L721,-94Z" fill="#b97d71" stroke="#b97d71" stroke-width="1.51"/><path d="M721,-94L429,-155L601,-90Z" fill="#b95e52" stroke="#b95e52" stroke-width="1.51"/><path d="M1071,-151L935,-115L1024,-31Z" fill="#c4877a" stroke="#c4877a" stroke-width="1.51"/><path d="M458,667L571,744L549,617Z" fill="#edb4af" stroke="#edb4af" stroke-width="1.51"/><path d="M549,617L571,744L727,610Z" fill="#e1c2be" stroke="#e1c2be" stroke-width="1.51"/><path d="M417,501L458,667L546,545Z" fill="#e7a19b" stroke="#e7a19b" stroke-width="1.51"/><path d="M571,744L702,799L727,610Z" fill="#decdcb" stroke="#decdcb" stroke-width="1.51"/><path d="M702,799L848,805L873,669Z" fill="#dddddd" stroke="#dddddd" stroke-width="1.51"/><path d="M936,686L1120,807L1072,617Z" fill="#eaeaea" stroke="#eaeaea" stroke-width="1.51"/><path d="M1072,617L1280,648L1133,529Z" fill="#e5e5e5" stroke="#e5e5e5" stroke-width="1.51"/><path d="M1339,214L1258,119L1240,240Z" fill="#f6988f" stroke="#f6988f" stroke-width="1.51"/><path d="M1240,240L1258,119L1128,106Z" fill="#ed958b" stroke="#ed958b" stroke-width="1.51"/><path d="M557,-28L417,-20L491,120Z" fill="#c14b43" stroke="#c14b43" stroke-width="1.51"/><path d="M429,-155L417,-20L557,-28Z" fill="#bd463e" stroke="#bd463e" stroke-width="1.51"/><path d="M848,805L942,815L936,686Z" fill="#e3e3e3" stroke="#e3e3e3" stroke-width="1.51"/><path d="M835,862L942,815L848,805Z" fill="#e3e3e3" stroke="#e3e3e3" stroke-width="1.51"/><path d="M369,238L289,423L426,258Z" fill="#ea4f50" stroke="#ea4f50" stroke-width="1.51"/><path d="M417,501L286,638L458,667Z" fill="#f0948d" stroke="#f0948d" stroke-width="1.51"/><path d="M230,219L289,423L369,238Z" fill="#e3494a" stroke="#e3494a" stroke-width="1.51"/><path d="M417,-20L327,101L491,120Z" fill="#cc3839" stroke="#cc3839" stroke-width="1.51"/><path d="M733,864L835,862L848,805Z" fill="#e0e0e0" stroke="#e0e0e0" stroke-width="1.51"/><path d="M733,864L848,805L702,799Z" fill="#dcdcdc" stroke="#dcdcdc" stroke-width="1.51"/><path d="M587,858L733,864L702,799Z" fill="#e1d3d1" stroke="#e1d3d1" stroke-width="1.51"/><path d="M587,858L702,799L571,744Z" fill="#e6c8c5" stroke="#e6c8c5" stroke-width="1.51"/><path d="M289,423L291,532L417,501Z" fill="#e2837c" stroke="#e2837c" stroke-width="1.51"/><path d="M1258,119L1244,23L1148,34Z" fill="#d89085" stroke="#d89085" stroke-width="1.51"/><path d="M1148,34L1071,-151L1024,-31Z" fill="#c88b7e" stroke="#c88b7e" stroke-width="1.51"/><path d="M458,667L430,739L571,744Z" fill="#f1aea8" stroke="#f1aea8" stroke-width="1.51"/><path d="M286,638L430,739L458,667Z" fill="#f89c95" stroke="#f89c95" stroke-width="1.51"/><path d="M935,-115L429,-155L721,-94Z" fill="#b37265" stroke="#b37265" stroke-width="1.51"/><path d="M1204,-121L1071,-151L1148,34Z" fill="#c98c7f" stroke="#c98c7f" stroke-width="1.51"/><path d="M1399,362L1240,240L1226,374Z" fill="#f1b7b1" stroke="#f1b7b1" stroke-width="1.51"/><path d="M1399,362L1339,214L1240,240Z" fill="#f9a8a1" stroke="#f9a8a1" stroke-width="1.51"/><path d="M1258,119L1381,100L1244,23Z" fill="#de9388" stroke="#de9388" stroke-width="1.51"/><path d="M417,-20L325,3L327,101Z" fill="#c4272d" stroke="#c4272d" stroke-width="1.51"/><path d="M327,101L230,219L369,238Z" fill="#de2435" stroke="#de2435" stroke-width="1.51"/><path d="M356,-122L325,3L417,-20Z" fill="#bf2a2d" stroke="#bf2a2d" stroke-width="1.51"/><path d="M445,868L587,858L571,744Z" fill="#f0bab5" stroke="#f0bab5" stroke-width="1.51"/><path d="M166,148L230,219L327,101Z" fill="#cf2731" stroke="#cf2731" stroke-width="1.51"/><path d="M289,423L197,506L291,532Z" fill="#d88179" stroke="#d88179" stroke-width="1.51"/><path d="M942,815L1120,807L936,686Z" fill="#e9e9e9" stroke="#e9e9e9" stroke-width="1.51"/><path d="M1200,513L1371,509L1226,374Z" fill="#dadada" stroke="#dadada" stroke-width="1.51"/><path d="M998,893L1120,807L942,815Z" fill="#ececec" stroke="#ececec" stroke-width="1.51"/><path d="M1120,807L1280,648L1072,617Z" fill="#eeeeee" stroke="#eeeeee" stroke-width="1.51"/><path d="M430,739L445,868L571,744Z" fill="#f4afa9" stroke="#f4afa9" stroke-width="1.51"/><path d="M291,532L286,638L417,501Z" fill="#e98a82" stroke="#e98a82" stroke-width="1.51"/><path d="M187,629L286,638L291,532Z" fill="#e38c83" stroke="#e38c83" stroke-width="1.51"/><path d="M1071,-151L429,-155L935,-115Z" fill="#b77b6f" stroke="#b77b6f" stroke-width="1.51"/><path d="M601,-90L429,-155L557,-28Z" fill="#bb5348" stroke="#bb5348" stroke-width="1.51"/><path d="M841,990L835,862L733,864Z" fill="#e1e1e1" stroke="#e1e1e1" stroke-width="1.51"/><path d="M841,990L998,893L835,862Z" fill="#e6e6e6" stroke="#e6e6e6" stroke-width="1.51"/><path d="M835,862L998,893L942,815Z" fill="#e7e7e7" stroke="#e7e7e7" stroke-width="1.51"/><path d="M1280,648L1371,509L1200,513Z" fill="#e3e3e3" stroke="#e3e3e3" stroke-width="1.51"/><path d="M1387,-158L1204,-121L1244,23Z" fill="#cc8e81" stroke="#cc8e81" stroke-width="1.51"/><path d="M1244,23L1204,-121L1148,34Z" fill="#ca8d80" stroke="#ca8d80" stroke-width="1.51"/><path d="M1371,509L1399,362L1226,374Z" fill="#e1d0ce" stroke="#e1d0ce" stroke-width="1.51"/><path d="M1339,214L1381,100L1258,119Z" fill="#ed968d" stroke="#ed968d" stroke-width="1.51"/><path d="M230,219L184,399L289,423Z" fill="#d95d56" stroke="#d95d56" stroke-width="1.51"/><path d="M184,399L197,506L289,423Z" fill="#d07b71" stroke="#d07b71" stroke-width="1.51"/><path d="M429,-155L356,-122L417,-20Z" fill="#bf3533" stroke="#bf3533" stroke-width="1.51"/><path d="M184,5L166,148L327,101Z" fill="#bf282b" stroke="#bf282b" stroke-width="1.51"/><path d="M1537,240L1381,100L1339,214Z" fill="#f79a91" stroke="#f79a91" stroke-width="1.51"/><path d="M286,795L445,868L430,739Z" fill="#fc9e97" stroke="#fc9e97" stroke-width="1.51"/><path d="M696,1048L841,990L733,864Z" fill="#dedede" stroke="#dedede" stroke-width="1.51"/><path d="M230,219L117,339L184,399Z" fill="#d2524d" stroke="#d2524d" stroke-width="1.51"/><path d="M184,5L327,101L325,3Z" fill="#bc282a" stroke="#bc282a" stroke-width="1.51"/><path d="M696,1048L733,864L587,858Z" fill="#e3d3d2" stroke="#e3d3d2" stroke-width="1.51"/><path d="M1371,509L1481,405L1399,362Z" fill="#e1d5d3" stroke="#e1d5d3" stroke-width="1.51"/><path d="M1280,648L1385,642L1371,509Z" fill="#e9e9e9" stroke="#e9e9e9" stroke-width="1.51"/><path d="M1376,732L1385,642L1280,648Z" fill="#f1f1f1" stroke="#f1f1f1" stroke-width="1.51"/><path d="M1282,803L1280,648L1120,807Z" fill="#f0f0f0" stroke="#f0f0f0" stroke-width="1.51"/><path d="M998,893L1117,914L1120,807Z" fill="#f1f1f1" stroke="#f1f1f1" stroke-width="1.51"/><path d="M1131,1018L1117,914L998,893Z" fill="#f2f2f2" stroke="#f2f2f2" stroke-width="1.51"/><path d="M184,399L105,557L197,506Z" fill="#cb7e74" stroke="#cb7e74" stroke-width="1.51"/><path d="M60,234L117,339L230,219Z" fill="#cf3c3b" stroke="#cf3c3b" stroke-width="1.51"/><path d="M105,557L187,629L197,506Z" fill="#d3867b" stroke="#d3867b" stroke-width="1.51"/><path d="M197,506L187,629L291,532Z" fill="#da877d" stroke="#da877d" stroke-width="1.51"/><path d="M286,638L286,795L430,739Z" fill="#f8978f" stroke="#f8978f" stroke-width="1.51"/><path d="M1381,100L1408,40L1244,23Z" fill="#d99287" stroke="#d99287" stroke-width="1.51"/><path d="M1529,83L1408,40L1381,100Z" fill="#df9589" stroke="#df9589" stroke-width="1.51"/><path d="M1249,875L1282,803L1120,807Z" fill="#f3f3f3" stroke="#f3f3f3" stroke-width="1.51"/><path d="M205,-158L184,5L325,3Z" fill="#b02927" stroke="#b02927" stroke-width="1.51"/><path d="M166,148L60,234L230,219Z" fill="#cd2730" stroke="#cd2730" stroke-width="1.51"/><path d="M170,729L286,795L286,638Z" fill="#ec948b" stroke="#ec948b" stroke-width="1.51"/><path d="M1399,362L1537,240L1339,214Z" fill="#fbaaa2" stroke="#fbaaa2" stroke-width="1.51"/><path d="M1518,504L1481,405L1371,509Z" fill="#dedede" stroke="#dedede" stroke-width="1.51"/><path d="M1385,642L1454,609L1371,509Z" fill="#e9e9e9" stroke="#e9e9e9" stroke-width="1.51"/><path d="M1282,803L1376,732L1280,648Z" fill="#f1f1f1" stroke="#f1f1f1" stroke-width="1.51"/><path d="M487,993L587,858L445,868Z" fill="#f5b7b1" stroke="#f5b7b1" stroke-width="1.51"/><path d="M487,993L560,999L587,858Z" fill="#f1bdb8" stroke="#f1bdb8" stroke-width="1.51"/><path d="M1282,803L1370,875L1376,732Z" fill="#f4f4f4" stroke="#f4f4f4" stroke-width="1.51"/><path d="M1117,914L1249,875L1120,807Z" fill="#f3f3f3" stroke="#f3f3f3" stroke-width="1.51"/><path d="M1376,732L1454,609L1385,642Z" fill="#f0f0f0" stroke="#f0f0f0" stroke-width="1.51"/><path d="M184,5L98,127L166,148Z" fill="#b72929" stroke="#b72929" stroke-width="1.51"/><path d="M117,339L105,557L184,399Z" fill="#c5756a" stroke="#c5756a" stroke-width="1.51"/><path d="M187,629L170,729L286,638Z" fill="#e59187" stroke="#e59187" stroke-width="1.51"/><path d="M-31,516L105,557L117,339Z" fill="#bc7a6f" stroke="#bc7a6f" stroke-width="1.51"/><path d="M560,999L696,1048L587,858Z" fill="#eac9c6" stroke="#eac9c6" stroke-width="1.51"/><path d="M963,1078L1131,1018L998,893Z" fill="#efefef" stroke="#efefef" stroke-width="1.51"/><path d="M1117,914L1213,1009L1249,875Z" fill="#f4f4f4" stroke="#f4f4f4" stroke-width="1.51"/><path d="M560,999L373,1017L696,1048Z" fill="#f1bdb8" stroke="#f1bdb8" stroke-width="1.51"/><path d="M373,1017L487,993L445,868Z" fill="#fbaaa3" stroke="#fbaaa3" stroke-width="1.51"/><path d="M98,127L60,234L166,148Z" fill="#c1282c" stroke="#c1282c" stroke-width="1.51"/><path d="M286,795L290,941L445,868Z" fill="#fd9b92" stroke="#fd9b92" stroke-width="1.51"/><path d="M111,642L170,729L187,629Z" fill="#dd8f84" stroke="#dd8f84" stroke-width="1.51"/><path d="M1454,609L1518,504L1371,509Z" fill="#e5e5e5" stroke="#e5e5e5" stroke-width="1.51"/><path d="M1481,405L1537,240L1399,362Z" fill="#f2bdb7" stroke="#f2bdb7" stroke-width="1.51"/><path d="M1592,421L1537,240L1481,405Z" fill="#efc2bd" stroke="#efc2bd" stroke-width="1.51"/><path d="M78,732L111,642L-78,614Z" fill="#cc8b7f" stroke="#cc8b7f" stroke-width="1.51"/><path d="M105,557L111,642L187,629Z" fill="#d4897e" stroke="#d4897e" stroke-width="1.51"/><path d="M184,5L82,-26L98,127Z" fill="#a82924" stroke="#a82924" stroke-width="1.51"/><path d="M356,-122L205,-158L325,3Z" fill="#b72929" stroke="#b72929" stroke-width="1.51"/><path d="M429,-155L205,-158L356,-122Z" fill="#bb282b" stroke="#bb282b" stroke-width="1.51"/><path d="M1605,-174L205,-158L429,-155Z" fill="#b3786b" stroke="#b3786b" stroke-width="1.51"/><path d="M1408,40L1387,-158L1244,23Z" fill="#cd8f83" stroke="#cd8f83" stroke-width="1.51"/><path d="M1204,-121L1387,-158L1071,-151Z" fill="#cb8d80" stroke="#cb8d80" stroke-width="1.51"/><path d="M1071,-151L1605,-174L429,-155Z" fill="#c5887c" stroke="#c5887c" stroke-width="1.51"/><path d="M1531,-9L1387,-158L1408,40Z" fill="#cf9184" stroke="#cf9184" stroke-width="1.51"/><path d="M963,1078L998,893L841,990Z" fill="#e9e9e9" stroke="#e9e9e9" stroke-width="1.51"/><path d="M1249,875L1370,875L1282,803Z" fill="#f5f5f5" stroke="#f5f5f5" stroke-width="1.51"/><path d="M696,1048L963,1078L841,990Z" fill="#e3e3e3" stroke="#e3e3e3" stroke-width="1.51"/><path d="M1537,240L1529,83L1381,100Z" fill="#ee988e" stroke="#ee988e" stroke-width="1.51"/><path d="M78,-104L82,-26L184,5Z" fill="#a12922" stroke="#a12922" stroke-width="1.51"/><path d="M98,127L-75,151L60,234Z" fill="#b82829" stroke="#b82829" stroke-width="1.51"/><path d="M236,934L286,795L170,729Z" fill="#ec968c" stroke="#ec968c" stroke-width="1.51"/><path d="M236,934L290,941L286,795Z" fill="#f49990" stroke="#f49990" stroke-width="1.51"/><path d="M1213,1009L1370,875L1249,875Z" fill="#f6f6f6" stroke="#f6f6f6" stroke-width="1.51"/><path d="M1376,732L1528,755L1454,609Z" fill="#f3f3f3" stroke="#f3f3f3" stroke-width="1.51"/><path d="M1671,523L1592,421L1518,504Z" fill="#dfdfdf" stroke="#dfdfdf" stroke-width="1.51"/><path d="M1131,1018L1213,1009L1117,914Z" fill="#f4f4f4" stroke="#f4f4f4" stroke-width="1.51"/><path d="M1403,1075L1213,1009L1131,1018Z" fill="#f5f5f5" stroke="#f5f5f5" stroke-width="1.51"/><path d="M1537,240L1661,147L1529,83Z" fill="#f2998f" stroke="#f2998f" stroke-width="1.51"/><path d="M1518,504L1592,421L1481,405Z" fill="#dddada" stroke="#dddada" stroke-width="1.51"/><path d="M1603,623L1518,504L1454,609Z" fill="#e9e9e9" stroke="#e9e9e9" stroke-width="1.51"/><path d="M696,1048L207,1050L963,1078Z" fill="#e9cbc8" stroke="#e9cbc8" stroke-width="1.51"/><path d="M487,993L373,1017L560,999Z" fill="#f8b1aa" stroke="#f8b1aa" stroke-width="1.51"/><path d="M290,941L373,1017L445,868Z" fill="#ff9e96" stroke="#ff9e96" stroke-width="1.51"/><path d="M1529,83L1531,-9L1408,40Z" fill="#d79387" stroke="#d79387" stroke-width="1.51"/><path d="M1624,29L1531,-9L1529,83Z" fill="#d69386" stroke="#d69386" stroke-width="1.51"/><path d="M1592,421L1611,263L1537,240Z" fill="#f6b4ae" stroke="#f6b4ae" stroke-width="1.51"/><path d="M-78,614L111,642L105,557Z" fill="#c8867a" stroke="#c8867a" stroke-width="1.51"/><path d="M111,642L78,732L170,729Z" fill="#d98f84" stroke="#d98f84" stroke-width="1.51"/><path d="M30,933L236,934L170,729Z" fill="#e2958a" stroke="#e2958a" stroke-width="1.51"/><path d="M290,941L207,1050L373,1017Z" fill="#f79a91" stroke="#f79a91" stroke-width="1.51"/><path d="M205,-158L78,-104L184,5Z" fill="#a62924" stroke="#a62924" stroke-width="1.51"/><path d="M-67,409L117,339L60,234Z" fill="#c05249" stroke="#c05249" stroke-width="1.51"/><path d="M-67,409L-31,516L117,339Z" fill="#b66f62" stroke="#b66f62" stroke-width="1.51"/><path d="M-67,409L60,234L-88,223Z" fill="#bd453d" stroke="#bd453d" stroke-width="1.51"/><path d="M1370,875L1528,755L1376,732Z" fill="#f5f5f5" stroke="#f5f5f5" stroke-width="1.51"/><path d="M1482,906L1528,755L1370,875Z" fill="#f7f7f7" stroke="#f7f7f7" stroke-width="1.51"/><path d="M1528,755L1603,623L1454,609Z" fill="#f1f1f1" stroke="#f1f1f1" stroke-width="1.51"/><path d="M1711,163L1661,147L1611,263Z" fill="#f99b92" stroke="#f99b92" stroke-width="1.51"/><path d="M-18,-16L98,127L82,-26Z" fill="#9f2922" stroke="#9f2922" stroke-width="1.51"/><path d="M1531,-9L1518,-163L1387,-158Z" fill="#cf9184" stroke="#cf9184" stroke-width="1.51"/><path d="M1387,-158L1605,-174L1071,-151Z" fill="#cd8f83" stroke="#cd8f83" stroke-width="1.51"/><path d="M1605,-174L1518,-163L1531,-9Z" fill="#cf9184" stroke="#cf9184" stroke-width="1.51"/><path d="M78,-104L-18,-16L82,-26Z" fill="#982920" stroke="#982920" stroke-width="1.51"/><path d="M1661,147L1537,240L1611,263Z" fill="#ff9c94" stroke="#ff9c94" stroke-width="1.51"/><path d="M1661,147L1624,29L1529,83Z" fill="#e2958a" stroke="#e2958a" stroke-width="1.51"/><path d="M-18,-16L-75,151L98,127Z" fill="#a42923" stroke="#a42923" stroke-width="1.51"/><path d="M1755,272L1611,263L1592,421Z" fill="#f5b8b2" stroke="#f5b8b2" stroke-width="1.51"/><path d="M-75,151L-88,223L60,234Z" fill="#bb282a" stroke="#bb282a" stroke-width="1.51"/><path d="M1603,623L1671,523L1518,504Z" fill="#e6e6e6" stroke="#e6e6e6" stroke-width="1.51"/><path d="M1735,514L1671,523L1740,662Z" fill="#e7e7e7" stroke="#e7e7e7" stroke-width="1.51"/><path d="M1740,662L1671,523L1603,623Z" fill="#ebebeb" stroke="#ebebeb" stroke-width="1.51"/><path d="M1463,1054L1482,906L1370,875Z" fill="#f9f9f9" stroke="#f9f9f9" stroke-width="1.51"/><path d="M-196,527L-78,614L-31,516Z" fill="#bc7f73" stroke="#bc7f73" stroke-width="1.51"/><path d="M-31,516L-78,614L105,557Z" fill="#bd8074" stroke="#bd8074" stroke-width="1.51"/><path d="M91,990L207,1050L236,934Z" fill="#e8978c" stroke="#e8978c" stroke-width="1.51"/><path d="M-196,527L-31,516L-67,409Z" fill="#b5796d" stroke="#b5796d" stroke-width="1.51"/><path d="M91,990L236,934L30,933Z" fill="#df9589" stroke="#df9589" stroke-width="1.51"/><path d="M236,934L207,1050L290,941Z" fill="#f0998f" stroke="#f0998f" stroke-width="1.51"/><path d="M373,1017L207,1050L696,1048Z" fill="#fca8a1" stroke="#fca8a1" stroke-width="1.51"/><path d="M1755,272L1711,163L1611,263Z" fill="#ff9f97" stroke="#ff9f97" stroke-width="1.51"/><path d="M1661,147L1738,13L1624,29Z" fill="#dc9489" stroke="#dc9489" stroke-width="1.51"/><path d="M1624,29L1605,-174L1531,-9Z" fill="#cf9184" stroke="#cf9184" stroke-width="1.51"/><path d="M-181,241L-150,375L-88,223Z" fill="#be413a" stroke="#be413a" stroke-width="1.51"/><path d="M-88,223L-150,375L-67,409Z" fill="#bb554a" stroke="#bb554a" stroke-width="1.51"/><path d="M1738,13L1605,-174L1624,29Z" fill="#cf9184" stroke="#cf9184" stroke-width="1.51"/><path d="M1518,-163L1605,-174L1387,-158Z" fill="#cf9184" stroke="#cf9184" stroke-width="1.51"/><path d="M1671,523L1735,514L1592,421Z" fill="#dfdfdf" stroke="#dfdfdf" stroke-width="1.51"/><path d="M1632,797L1603,623L1528,755Z" fill="#f4f4f4" stroke="#f4f4f4" stroke-width="1.51"/><path d="M1633,865L1632,797L1528,755Z" fill="#f6f6f6" stroke="#f6f6f6" stroke-width="1.51"/><path d="M1711,163L1738,13L1661,147Z" fill="#e7968c" stroke="#e7968c" stroke-width="1.51"/><path d="M1787,390L1755,272L1592,421Z" fill="#eec3bf" stroke="#eec3bf" stroke-width="1.51"/><path d="M1213,1009L1403,1075L1370,875Z" fill="#f7f7f7" stroke="#f7f7f7" stroke-width="1.51"/><path d="M1482,906L1633,865L1528,755Z" fill="#f7f7f7" stroke="#f7f7f7" stroke-width="1.51"/><path d="M963,1078L1403,1075L1131,1018Z" fill="#f4f4f4" stroke="#f4f4f4" stroke-width="1.51"/><path d="M30,933L170,729L78,732Z" fill="#d89185" stroke="#d89185" stroke-width="1.51"/><path d="M78,-104L-61,-140L-18,-16Z" fill="#93291e" stroke="#93291e" stroke-width="1.51"/><path d="M-191,20L-191,89L-75,151Z" fill="#a42923" stroke="#a42923" stroke-width="1.51"/><path d="M-75,151L-181,241L-88,223Z" fill="#bb282a" stroke="#bb282a" stroke-width="1.51"/><path d="M205,-158L-61,-140L78,-104Z" fill="#9c2921" stroke="#9c2921" stroke-width="1.51"/><path d="M-77,791L30,933L78,732Z" fill="#cd8f82" stroke="#cd8f82" stroke-width="1.51"/><path d="M-191,89L-181,241L-75,151Z" fill="#b22928" stroke="#b22928" stroke-width="1.51"/><path d="M-196,527L-67,409L-150,375Z" fill="#b37366" stroke="#b37366" stroke-width="1.51"/><path d="M-146,757L-77,791L-78,614Z" fill="#ca8c80" stroke="#ca8c80" stroke-width="1.51"/><path d="M-78,614L-77,791L78,732Z" fill="#c98c7f" stroke="#c98c7f" stroke-width="1.51"/><path d="M1403,1075L1463,1054L1370,875Z" fill="#f8f8f8" stroke="#f8f8f8" stroke-width="1.51"/><path d="M1755,272L1738,13L1711,163Z" fill="#f0998f" stroke="#f0998f" stroke-width="1.51"/><path d="M1755,272L1773,-142L1738,13Z" fill="#d99388" stroke="#d99388" stroke-width="1.51"/><path d="M1735,514L1787,390L1592,421Z" fill="#dedad9" stroke="#dedad9" stroke-width="1.51"/><path d="M1740,662L1787,390L1735,514Z" fill="#e3e3e3" stroke="#e3e3e3" stroke-width="1.51"/><path d="M1632,797L1740,662L1603,623Z" fill="#f3f3f3" stroke="#f3f3f3" stroke-width="1.51"/><path d="M1588,1054L1633,865L1482,906Z" fill="#f9f9f9" stroke="#f9f9f9" stroke-width="1.51"/><path d="M1731,782L1740,662L1632,797Z" fill="#f4f4f4" stroke="#f4f4f4" stroke-width="1.51"/><path d="M-181,241L-196,527L-150,375Z" fill="#b86356" stroke="#b86356" stroke-width="1.51"/><path d="M-181,241L-191,89L-196,527Z" fill="#bd443c" stroke="#bd443c" stroke-width="1.51"/><path d="M-191,20L-75,151L-18,-16Z" fill="#9d2921" stroke="#9d2921" stroke-width="1.51"/><path d="M-191,89L-216,684L-196,527Z" fill="#b37265" stroke="#b37265" stroke-width="1.51"/><path d="M-153,-92L-191,20L-18,-16Z" fill="#93291e" stroke="#93291e" stroke-width="1.51"/><path d="M-77,791L-94,908L30,933Z" fill="#ce9084" stroke="#ce9084" stroke-width="1.51"/><path d="M-216,684L-146,757L-78,614Z" fill="#c98b7f" stroke="#c98b7f" stroke-width="1.51"/><path d="M-61,-140L-153,-92L-18,-16Z" fill="#93291e" stroke="#93291e" stroke-width="1.51"/><path d="M1735,868L1731,782L1632,797Z" fill="#f6f6f6" stroke="#f6f6f6" stroke-width="1.51"/><path d="M1740,662L1782,1008L1787,390Z" fill="#f3f3f3" stroke="#f3f3f3" stroke-width="1.51"/><path d="M1735,868L1632,797L1633,865Z" fill="#f7f7f7" stroke="#f7f7f7" stroke-width="1.51"/><path d="M-211,871L-94,908L-77,791Z" fill="#cd8f83" stroke="#cd8f83" stroke-width="1.51"/><path d="M30,933L-65,1049L91,990Z" fill="#d19185" stroke="#d19185" stroke-width="1.51"/><path d="M91,990L-65,1049L207,1050Z" fill="#da9388" stroke="#da9388" stroke-width="1.51"/><path d="M-196,527L-216,684L-78,614Z" fill="#c18478" stroke="#c18478" stroke-width="1.51"/><path d="M-146,757L-211,871L-77,791Z" fill="#cc8f82" stroke="#cc8f82" stroke-width="1.51"/><path d="M-191,20L-216,684L-191,89Z" fill="#be3b36" stroke="#be3b36" stroke-width="1.51"/><path d="M1463,1054L1588,1054L1482,906Z" fill="#f9f9f9" stroke="#f9f9f9" stroke-width="1.51"/><path d="M1403,1075L1588,1054L1463,1054Z" fill="#f9f9f9" stroke="#f9f9f9" stroke-width="1.51"/><path d="M1738,13L1773,-142L1605,-174Z" fill="#cf9184" stroke="#cf9184" stroke-width="1.51"/><path d="M1787,390L1773,-142L1755,272Z" fill="#f59a90" stroke="#f59a90" stroke-width="1.51"/><path d="M1731,782L1782,1008L1740,662Z" fill="#f6f6f6" stroke="#f6f6f6" stroke-width="1.51"/><path d="M1782,1008L1735,868L1633,865Z" fill="#f9f9f9" stroke="#f9f9f9" stroke-width="1.51"/><path d="M-156,992L-65,1049L-94,908Z" fill="#cf9184" stroke="#cf9184" stroke-width="1.51"/><path d="M-94,908L-65,1049L30,933Z" fill="#cf9184" stroke="#cf9184" stroke-width="1.51"/><path d="M207,1050L-65,1049L963,1078Z" fill="#ff9e96" stroke="#ff9e96" stroke-width="1.51"/><path d="M-216,684L-211,871L-146,757Z" fill="#cb8e81" stroke="#cb8e81" stroke-width="1.51"/><path d="M-211,871L-156,992L-94,908Z" fill="#cf9184" stroke="#cf9184" stroke-width="1.51"/><path d="M1735,868L1782,1008L1731,782Z" fill="#f8f8f8" stroke="#f8f8f8" stroke-width="1.51"/><path d="M1588,1054L1782,1008L1633,865Z" fill="#f9f9f9" stroke="#f9f9f9" stroke-width="1.51"/></svg>